<?xml version="1.0" encoding="UTF-8"?>
<svg version="1.1" xmlns="http://www.w3.org/2000/svg" width="144" height="144">
<path d="M0 0 C2.75892252 1.89473741 5.40900474 3.88202023 8 6 C8.83144531 5.57847656 9.66289063 5.15695312 10.51953125 4.72265625 C11.60621094 4.17480469 12.69289063 3.62695312 13.8125 3.0625 C15.43091797 2.24458984 15.43091797 2.24458984 17.08203125 1.41015625 C23.44014853 -1.66250819 29.88189646 -2.08247293 36.734375 -0.28125 C46.03588549 3.21386303 50.63531919 7.7130502 54.87109375 16.66015625 C57.24554907 23.68492891 56.59187797 30.85628318 55 38 C55.64066406 38.3403125 56.28132813 38.680625 56.94140625 39.03125 C64.31798395 43.16477193 71.53463727 48.47351794 74.55859375 56.765625 C76.2785564 65.47198461 76.11064506 74.16636066 71.5546875 81.9140625 C66.28332635 88.98669278 59.68275456 92.68735056 51 94 C51.04640625 94.81082031 51.0928125 95.62164062 51.140625 96.45703125 C51.45069862 105.96964702 50.25151637 114.12868297 44.375 121.875 C39.08241318 127.42088443 31.84228285 130.61340367 24.22265625 131.0703125 C17.26413864 130.85018365 11.75339208 128.83559472 6 125 C4.948125 123.8553125 4.948125 123.8553125 3.875 122.6875 C2.14169045 120.74913823 2.14169045 120.74913823 -0.25 121 C-3.35223615 122.12808587 -6.21741163 123.51971977 -9.1328125 125.0625 C-15.62054337 128.31993809 -24.02795179 128.14557725 -30.8984375 126.1640625 C-38.11445063 122.85579802 -43.62792212 117.57518478 -46.9375 110.3125 C-49.22448694 103.19742951 -49.15328123 94.77138877 -46 88 C-47.10021484 87.58427734 -47.10021484 87.58427734 -48.22265625 87.16015625 C-56.45265077 83.72231044 -61.80271222 78.86991459 -66 71 C-68.25877421 64.22367736 -68.41621615 53.76909764 -65.25 47.3125 C-64.53722756 46.18394363 -63.79030207 45.07568893 -63 44 C-62.4225 43.113125 -61.845 42.22625 -61.25 41.3125 C-55.84731605 35.7597415 -50.69278472 33.41211347 -43 33 C-43.04640625 32.11699219 -43.0928125 31.23398437 -43.140625 30.32421875 C-43.45230728 19.96078303 -42.56608668 11.4668726 -35.375 3.5625 C-25.31769721 -5.47422778 -11.61957684 -7.08772709 0 0 Z M-30 12 C-34.00094649 17.83471363 -33.5634098 24.18294004 -33.6875 31 C-33.71223389 32.21010742 -33.73696777 33.42021484 -33.76245117 34.66699219 C-33.81068292 37.04941599 -33.85578951 39.43190554 -33.89746094 41.81445312 C-33.98245896 44.45505826 -34.16964847 47.01921815 -34.4765625 49.640625 C-34.92635466 54.39306377 -34.92635466 54.39306377 -34 59 C-30.74129508 61.94054734 -25.65755335 66 -21 66 C-20.27589524 59.40847127 -19.95815397 52.96011751 -20.140625 46.328125 C-20.16931118 44.31529067 -20.1915437 42.30249032 -20.21142578 40.28955078 C-20.23728816 38.92211863 -20.28474497 37.55493595 -20.35302734 36.18896484 C-20.57164236 31.52480787 -20.49780347 27.4418509 -19 23 C-15.04539657 19.29034792 -10.97108237 17.1956755 -6 15 C-4.66440791 14.3378701 -3.32986984 13.67354913 -2 13 C-3.46748366 9.13117944 -5.25807955 7.70826803 -9 6 C-17.22581882 4.11210716 -23.9233814 5.9233814 -30 12 Z M2.375 20.25 C1.07196499 21.00321068 -0.23141824 21.75581929 -1.53515625 22.5078125 C-4.69485495 24.33056118 -7.84705059 26.16540156 -11 28 C-11 32.95 -11 37.9 -11 43 C-4.39920792 39.80840822 2.0730504 36.58120884 8.39453125 32.86328125 C9.78442261 32.04778809 9.78442261 32.04778809 11.20239258 31.21582031 C13.04618012 30.12618516 14.88348482 29.02549384 16.71362305 27.91308594 C25.1459461 22.93528246 25.1459461 22.93528246 30 24 C32.77230419 25.2883873 35.30892781 26.84398829 37.875 28.5 C38.56335938 28.92925781 39.25171875 29.35851562 39.9609375 29.80078125 C41.64812861 30.8552757 43.32513264 31.92603925 45 33 C47.6002524 29.0996214 47.10347045 27.01260699 46.5390625 22.50390625 C45.54364871 17.88028131 43.04279315 15.10413392 39.875 11.75 C26.36686567 3.52765737 14.24155355 13.33113412 2.375 20.25 Z M23.08203125 34.43359375 C22.00308594 35.09488281 20.92414063 35.75617187 19.8125 36.4375 C18.72582031 37.09621094 17.63914062 37.75492188 16.51953125 38.43359375 C15.68808594 38.95050781 14.85664062 39.46742187 14 40 C17.49901353 42.92254462 21.05261205 45.32502985 25 47.6015625 C26.134375 48.25640625 27.26875 48.91125 28.4375 49.5859375 C29.02273437 49.92077148 29.60796875 50.25560547 30.2109375 50.60058594 C31.99810574 51.62391535 33.78050284 52.65519768 35.5625 53.6875 C40.34482694 56.43733799 44.86536915 58.94614766 50 61 C50.495 72.385 50.495 72.385 51 84 C57.68066032 82.66386794 61.10511819 79.75063488 64.9375 74.1875 C66.71188002 68.86435994 66.70946076 64.21706487 65 58.875 C59.61542143 51.13466831 51.52679847 46.65967225 43.45288086 42.11816406 C41.66819501 41.11413944 39.89128844 40.09732815 38.11523438 39.078125 C30.88793969 34.06555125 30.88793969 34.06555125 23.08203125 34.43359375 Z M-53 47 C-57.22104098 52.41159099 -58.84652266 57.1419396 -58 64 C-54.82080973 74.83354648 -43.66641045 79.63021867 -34.56274414 84.91625977 C-32.79692274 85.94658909 -31.04434482 86.99741595 -29.29101562 88.04882812 C-27.60975586 89.02819336 -27.60975586 89.02819336 -25.89453125 90.02734375 C-24.88237549 90.62281006 -23.87021973 91.21827637 -22.82739258 91.83178711 C-19.60839706 93.16180123 -18.25797575 93.08390347 -15 92 C-12.52756773 90.83935432 -12.52756773 90.83935432 -10.1875 89.4375 C-9.39730469 88.98246094 -8.60710938 88.52742188 -7.79296875 88.05859375 C-7.20128906 87.70925781 -6.60960937 87.35992187 -6 87 C-8.99016457 83.74255316 -12.02468733 81.63973555 -15.8671875 79.46875 C-17.00027344 78.82292969 -18.13335937 78.17710938 -19.30078125 77.51171875 C-20.49198593 76.84078783 -21.68339386 76.17021766 -22.875 75.5 C-25.20750958 74.18018141 -27.53750886 72.85607293 -29.8671875 71.53125 C-31.41575439 70.65823242 -31.41575439 70.65823242 -32.99560547 69.76757812 C-34.48278076 68.89262695 -34.48278076 68.89262695 -36 68 C-37.09989258 67.37448242 -38.19978516 66.74896484 -39.33300781 66.10449219 C-42 64 -42 64 -42.77294922 61.52636719 C-42.78342285 60.62563477 -42.79389648 59.72490234 -42.8046875 58.796875 C-42.84335937 57.32734375 -42.84335937 57.32734375 -42.8828125 55.828125 C-42.88023438 54.81234375 -42.87765625 53.7965625 -42.875 52.75 C-42.895625 51.71875 -42.91625 50.6875 -42.9375 49.625 C-42.98458283 47.08252715 -43.00444327 44.54281958 -43 42 C-46.82695275 42 -50.03916843 44.7485954 -53 47 Z M-4.125 50 C-4.78371094 50.3815625 -5.44242188 50.763125 -6.12109375 51.15625 C-7.74962748 52.10032752 -9.37510657 53.04967068 -11 54 C-12.6660298 64.20008187 -12.6660298 64.20008187 -9.82080078 73.65380859 C-6.37769208 76.76165842 -2.4389154 78.68045909 2 80 C7.57329823 79.68721285 12.09582614 77.69886003 16.76171875 74.71875 C20.83604706 69.76982765 19.83700479 63.81085692 19.38671875 57.69140625 C19.25910156 56.47324219 19.13148437 55.25507812 19 54 C16.71125827 52.66141476 14.41930344 51.32898986 12.125 50 C11.47402344 49.6184375 10.82304688 49.236875 10.15234375 48.84375 C3.73499587 45.13888937 1.97206885 46.42627251 -4.125 50 Z M28 60 C28.06396973 61.28052246 28.12793945 62.56104492 28.19384766 63.88037109 C28.40875035 68.66989899 28.5025743 73.45573798 28.56152344 78.24951172 C28.60349619 80.31618531 28.67752804 82.38248144 28.78515625 84.44677734 C29.48068045 98.29707178 29.48068045 98.29707178 27 104 C22.17872647 109.11580951 15.54331239 111.75153818 9 114 C13.62122054 118.74383999 16.15541153 120.72020441 22.8125 121.375 C28.18650839 121.21276578 32.67944756 119.19992966 36.578125 115.50390625 C42.72409392 108.42191333 41.5460257 99.52242504 41.73461914 90.64111328 C41.78636767 88.72009103 41.86142143 86.79954961 41.96020508 84.88037109 C42.54778818 75.83884792 42.54778818 75.83884792 41 67 C37.46493737 63.2502834 33.90876918 61.46084259 29 60 C28.67 60 28.34 60 28 60 Z M13.22265625 85.6328125 C12.23330078 86.19226563 11.24394531 86.75171875 10.22460938 87.328125 C8.65936523 88.21757813 8.65936523 88.21757813 7.0625 89.125 C5.54946289 89.97964844 5.54946289 89.97964844 4.00585938 90.8515625 C-1.6806611 94.07380205 -7.30367281 97.3662493 -12.84594727 100.83154297 C-14.96902629 101.98319844 -16.60794359 102.68885053 -19 103 C-21.4341867 101.98744796 -23.63567489 100.94149745 -25.9375 99.6875 C-29.89376277 97.5939951 -33.79909779 95.57035623 -38 94 C-39.7890641 97.5781282 -39.55994459 101.24932987 -38.3515625 105.02734375 C-36.04155354 110.17056883 -32.77897574 113.97121932 -28 117 C-23.11611828 118.81003511 -18.32725612 118.50647259 -13.51953125 116.671875 C-12.2744047 116.04981542 -11.03903793 115.4079536 -9.8125 114.75 C-9.14412109 114.39429932 -8.47574219 114.03859863 -7.78710938 113.67211914 C-6.32255262 112.88426905 -4.86192928 112.08907458 -3.40478516 111.28759766 C-0.80522857 109.89571324 1.83659756 108.61373933 4.48828125 107.32421875 C13.58822906 103.20811164 13.58822906 103.20811164 19.87695312 95.99462891 C20.70553734 91.51756769 20.08524841 87.41334354 19 83 C16.9565135 83 14.93410648 84.66404383 13.22265625 85.6328125 Z " fill="#008080" transform="translate(68,9)"/>
</svg>
