<?xml version="1.0" encoding="UTF-8"?>
<svg version="1.1" xmlns="http://www.w3.org/2000/svg" width="144" height="144">
<path d="M0 0 C1.01126953 0.00064453 2.02253906 0.00128906 3.06445312 0.00195312 C4.63936523 0.02612305 4.63936523 0.02612305 6.24609375 0.05078125 C7.29990234 0.04755859 8.35371094 0.04433594 9.43945312 0.04101562 C17.28278302 0.0960741 17.28278302 0.0960741 20.68359375 2.36328125 C21.0559082 5.03710937 21.0559082 5.03710937 21.046875 8.39453125 C21.0459082 10.19857422 21.0459082 10.19857422 21.04492188 12.0390625 C21.02880859 13.30105469 21.01269531 14.56304687 20.99609375 15.86328125 C20.99931641 17.12527344 21.00253906 18.38726562 21.00585938 19.6875 C20.95039378 29.09648122 20.95039378 29.09648122 18.68359375 31.36328125 C15.05859375 30.98828125 15.05859375 30.98828125 11.68359375 30.36328125 C10.69359375 25.41328125 10.69359375 25.41328125 9.68359375 20.36328125 C8.97460938 21.14445312 8.265625 21.925625 7.53515625 22.73046875 C-0.16909854 31.14111301 -8.07680859 39.36753793 -16.0647583 47.50860596 C-17.23122772 48.70206362 -18.39235524 49.90076618 -19.54803467 51.10467529 C-21.19608992 52.8188677 -22.86280792 54.51266751 -24.53515625 56.203125 C-25.02855499 56.72431412 -25.52195374 57.24550323 -26.03030396 57.78248596 C-28.51126243 60.24917336 -29.97861771 61.3156434 -33.48266602 61.80981445 C-37.42542466 61.1885251 -39.80761155 59.13229945 -42.75390625 56.61328125 C-43.97394973 55.61196868 -45.19400215 54.61066701 -46.4140625 53.609375 C-47.36176514 52.81829346 -47.36176514 52.81829346 -48.32861328 52.01123047 C-51.74180691 49.18157474 -55.22203239 46.43599199 -58.69140625 43.67578125 C-60.90114672 41.90669521 -63.10875161 40.13497048 -65.31640625 38.36328125 C-68.89458043 39.87546805 -71.11675333 41.95868812 -73.80615234 44.73706055 C-75.12805069 46.09307625 -75.12805069 46.09307625 -76.47665405 47.47648621 C-76.94297619 47.9591564 -77.40929832 48.44182659 -77.88975143 48.93912315 C-79.35539623 50.45357034 -80.82937561 51.95940505 -82.30630493 53.46284485 C-86.50354544 57.73631171 -90.69381004 62.0162457 -94.85742188 66.32250977 C-97.40811553 68.95935414 -99.97556662 71.57883093 -102.55470657 74.18784523 C-103.5331849 75.18427512 -104.50519224 76.18710264 -105.47047043 77.1963253 C-106.81991028 78.60595782 -108.19342486 79.99242409 -109.56787109 81.37768555 C-110.34190277 82.17329391 -111.11593445 82.96890228 -111.91342163 83.78862 C-114.31640625 85.36328125 -114.31640625 85.36328125 -117.4881897 85.29988098 C-120.31640625 84.36328125 -120.31640625 84.36328125 -122.31640625 81.36328125 C-122.38192513 77.56973787 -120.9234196 75.70957464 -118.40234375 73.09375 C-117.17527844 71.90246305 -115.93787775 70.7217478 -114.69140625 69.55078125 C-110.9892367 66.01043361 -107.36032819 62.48520738 -104.02416992 58.59301758 C-98.70002038 52.46665023 -93.00388291 46.71365009 -87.30053711 40.94238281 C-85.92806108 39.54813184 -84.56189639 38.14764179 -83.2019043 36.74121094 C-81.22180712 34.69439025 -79.22287819 32.66779407 -77.21875 30.64453125 C-76.61546371 30.01341431 -76.01217743 29.38229736 -75.39060974 28.73205566 C-72.55429444 25.9093652 -71.11775628 24.49119741 -67.08007812 23.84667969 C-63.21193765 24.56973492 -60.79150808 26.62306973 -57.87890625 29.11328125 C-56.65886277 30.11459382 -55.43881035 31.11589549 -54.21875 32.1171875 C-53.27104736 32.90826904 -53.27104736 32.90826904 -52.30419922 33.71533203 C-48.89100559 36.54498776 -45.41078011 39.29057051 -41.94140625 42.05078125 C-39.73166578 43.81986729 -37.52406089 45.59159202 -35.31640625 47.36328125 C-32.27059139 46.00215112 -30.17801599 44.46998029 -27.83300781 42.10693359 C-27.17262512 41.44639984 -26.51224243 40.78586609 -25.83184814 40.10531616 C-25.13065857 39.39380402 -24.42946899 38.68229187 -23.70703125 37.94921875 C-22.61681671 36.85475937 -22.61681671 36.85475937 -21.50457764 35.7381897 C-19.18711427 33.40954245 -16.87670675 31.07403299 -14.56640625 28.73828125 C-12.99525181 27.15709472 -11.42364254 25.57636 -9.8515625 23.99609375 C-6.00121547 20.12371007 -2.15718143 16.24515791 1.68359375 12.36328125 C-3.26640625 11.37328125 -3.26640625 11.37328125 -8.31640625 10.36328125 C-8.81140625 6.89828125 -8.81140625 6.89828125 -9.31640625 3.36328125 C-6.16614045 0.57272959 -4.18110076 -0.01349566 0 0 Z " fill="#008080" transform="translate(123.31640625,54.63671875)"/>
<path d="M0 0 C1.1859375 0.00257813 2.371875 0.00515625 3.59375 0.0078125 C4.7796875 0.00523437 5.965625 0.00265625 7.1875 0 C10.09375 0.1328125 10.09375 0.1328125 11.09375 1.1328125 C11.18882821 3.71920288 11.21931376 6.2787981 11.20727539 8.86547852 C11.20742142 9.6751709 11.20756744 10.48486328 11.2077179 11.3190918 C11.20701854 14.00832758 11.1992251 16.69749499 11.19140625 19.38671875 C11.18954215 21.24616966 11.18811821 23.10562106 11.18711853 24.96507263 C11.18329271 29.86910346 11.17346188 34.77310486 11.16241455 39.67712402 C11.15220181 44.67732342 11.14762121 49.67752756 11.14257812 54.67773438 C11.13183967 64.49610671 11.11476248 74.31445716 11.09375 84.1328125 C9.42693663 83.13305705 7.76030399 82.13300026 6.09375 81.1328125 C5.22247971 80.65001328 4.35120941 80.16721405 3.45353699 79.66978455 C-0.88035985 76.85677026 -3.49318252 74.76944664 -4.78744507 69.64138794 C-5.20874039 65.30538776 -5.05902859 60.98392197 -4.91796875 56.63671875 C-4.9018325 55.03632762 -4.89000399 53.43588779 -4.88227844 51.83543396 C-4.84993014 47.64380507 -4.75670012 43.4556569 -4.65118408 39.26531982 C-4.55553381 34.98524986 -4.52301567 30.70470592 -4.48242188 26.42382812 C-4.41115365 20.19152534 -4.32493636 13.95979053 -4.1784668 7.72875977 C-4.15052536 6.47603775 -4.12258392 5.22331573 -4.09379578 3.93263245 C-3.83805314 0.11472014 -3.84054702 0.17550887 0 0 Z " fill="#008080" transform="translate(69.90625,4.8671875)"/>
<path d="M0 0 C1.1859375 0.00257812 2.371875 0.00515625 3.59375 0.0078125 C4.7796875 0.00523438 5.965625 0.00265625 7.1875 0 C10.09375 0.1328125 10.09375 0.1328125 11.09375 1.1328125 C11.85879591 8.53881621 11.79450918 16.07197913 11.93823242 23.51049805 C11.99969586 26.02791797 12.08808396 28.5448405 12.20483398 31.06030273 C13.2075312 53.08908028 13.2075312 53.08908028 7.94580078 59.99462891 C4.66297283 63.56581859 1.12497759 66.44543234 -2.90625 69.1328125 C-3.23625 69.1328125 -3.56625 69.1328125 -3.90625 69.1328125 C-3.92937589 60.2839886 -3.94716634 51.43517503 -3.95806217 42.58632755 C-3.96329046 38.47786965 -3.97038713 34.36943236 -3.98168945 30.26098633 C-3.99252025 26.29934422 -3.99852724 22.33772198 -4.00112724 18.37606621 C-4.00298114 16.86132939 -4.0066011 15.34659371 -4.01198006 13.83186531 C-4.01919307 11.71739437 -4.02024083 9.60300656 -4.01977539 7.48852539 C-4.021996 6.28273331 -4.02421661 5.07694122 -4.02650452 3.83460999 C-3.85945251 0.08139805 -3.77883591 0.17268874 0 0 Z " fill="#008080" transform="translate(91.90625,26.8671875)"/>
<path d="M0 0 C4.62 0 9.24 0 14 0 C15 1 15 1 15.11352539 3.86743164 C15.10828857 5.11903076 15.10305176 6.37062988 15.09765625 7.66015625 C15.0962413 8.32462265 15.09482635 8.98908905 15.09336853 9.6736908 C15.08775518 11.80333899 15.07520054 13.93288339 15.0625 16.0625 C15.05748671 17.50325369 15.05292351 18.94400903 15.04882812 20.38476562 C15.03778145 23.92321102 15.02050792 27.46159539 15 31 C14.41992188 31.09796875 13.83984375 31.1959375 13.2421875 31.296875 C12.46101563 31.44640625 11.67984375 31.5959375 10.875 31.75 C10.10929687 31.88921875 9.34359375 32.0284375 8.5546875 32.171875 C5.22913683 33.12232562 5.22913683 33.12232562 0 37 C0 24.79 0 12.58 0 0 Z " fill="#008080" transform="translate(45,42)"/>
<path d="M0 0 C1.1859375 0.00257812 2.371875 0.00515625 3.59375 0.0078125 C4.7796875 0.00523438 5.965625 0.00265625 7.1875 0 C10.09375 0.1328125 10.09375 0.1328125 11.09375 1.1328125 C11.75545897 4.44135735 12.00498223 5.95903205 11.09375 9.1328125 C8.78247237 11.97517414 6.28739919 14.37724008 3.57421875 16.8359375 C1.07944967 19.00339183 1.07944967 19.00339183 -0.60546875 21.4296875 C-1.03472656 21.99171875 -1.46398437 22.55375 -1.90625 23.1328125 C-2.56625 23.1328125 -3.22625 23.1328125 -3.90625 23.1328125 C-3.93512512 19.48699563 -3.95300585 15.84120787 -3.96875 12.1953125 C-3.97712891 11.15439453 -3.98550781 10.11347656 -3.99414062 9.04101562 C-3.99897461 7.55698242 -3.99897461 7.55698242 -4.00390625 6.04296875 C-4.00914307 5.12652588 -4.01437988 4.21008301 -4.01977539 3.26586914 C-3.84256454 -0.06378934 -3.3866303 0.15476536 0 0 Z " fill="#008080" transform="translate(26.90625,77.8671875)"/>
</svg>
