<?xml version="1.0" encoding="UTF-8"?>
<svg version="1.1" xmlns="http://www.w3.org/2000/svg" width="144" height="144">
<path d="M0 0 C2.43004924 1.89824515 4.73284007 3.86485444 7.0078125 5.9453125 C7.63945313 6.49703125 8.27109375 7.04875 8.921875 7.6171875 C21.33751863 19.10302522 28.49144746 36.45433166 29.328125 53.13671875 C29.96246234 74.21835188 24.68803942 93.19548799 10.0078125 108.9453125 C-2.32782621 121.79762718 -18.92010882 130.60853753 -36.93359375 131.1484375 C-60.15265544 131.47854678 -78.33647715 126.03449959 -95.31640625 109.7109375 C-110.60189629 93.82856075 -115.56437869 75.08448427 -115.265625 53.57421875 C-114.6147314 34.32130175 -105.02959814 17.44606544 -91.3671875 4.3203125 C-65.47416173 -18.11766228 -27.92802623 -19.17773081 0 0 Z M-37.9921875 -2.0546875 C-37.9921875 5.2053125 -37.9921875 12.4653125 -37.9921875 19.9453125 C-32.3821875 19.9453125 -26.7721875 19.9453125 -20.9921875 19.9453125 C-25.14980017 10.74548871 -28.46152735 3.83988883 -36.9921875 -2.0546875 C-37.3221875 -2.0546875 -37.6521875 -2.0546875 -37.9921875 -2.0546875 Z M-56.9921875 4.9453125 C-60.86002779 9.8159262 -63.00280248 13.97715745 -64.9921875 19.9453125 C-59.3821875 19.9453125 -53.7721875 19.9453125 -47.9921875 19.9453125 C-47.9921875 12.6853125 -47.9921875 5.4253125 -47.9921875 -2.0546875 C-51.11596753 -2.0546875 -54.92582308 2.88272572 -56.9921875 4.9453125 Z M-17.9921875 1.9453125 C-16.4353415 5.95834758 -14.68079893 9.8546053 -12.8671875 13.7578125 C-11.9184375 15.7996875 -10.9696875 17.8415625 -9.9921875 19.9453125 C-5.0421875 19.9453125 -0.0921875 19.9453125 5.0078125 19.9453125 C-0.881674 12.25626068 -8.72269727 5.15986966 -17.9921875 1.9453125 Z M-68.9921875 1.9453125 C-77.3449656 6.47713891 -85.6432258 11.92186995 -90.9921875 19.9453125 C-86.0421875 19.9453125 -81.0921875 19.9453125 -75.9921875 19.9453125 C-74.62829225 17.32496232 -73.27586577 14.69974251 -71.9296875 12.0703125 C-71.53974609 11.32394531 -71.14980469 10.57757813 -70.74804688 9.80859375 C-70.38388672 9.09316406 -70.01972656 8.37773437 -69.64453125 7.640625 C-69.30413818 6.98078613 -68.96374512 6.32094727 -68.61303711 5.64111328 C-68.30571655 4.80169189 -68.30571655 4.80169189 -67.9921875 3.9453125 C-68.3221875 3.2853125 -68.6521875 2.6253125 -68.9921875 1.9453125 Z M-98.9921875 30.9453125 C-99.7965625 33.0696875 -100.6009375 35.1940625 -101.4296875 37.3828125 C-101.88214844 38.57777344 -102.33460937 39.77273437 -102.80078125 41.00390625 C-104.35309768 45.7079247 -104.35309768 45.7079247 -104.9921875 53.9453125 C-97.4021875 53.9453125 -89.8121875 53.9453125 -81.9921875 53.9453125 C-81.0021875 46.3553125 -80.0121875 38.7653125 -78.9921875 30.9453125 C-85.5921875 30.9453125 -92.1921875 30.9453125 -98.9921875 30.9453125 Z M-67.9921875 30.9453125 C-71.2598806 39.11454525 -70.9921875 44.83455816 -70.9921875 53.9453125 C-63.4021875 53.9453125 -55.8121875 53.9453125 -47.9921875 53.9453125 C-47.9921875 46.3553125 -47.9921875 38.7653125 -47.9921875 30.9453125 C-54.5921875 30.9453125 -61.1921875 30.9453125 -67.9921875 30.9453125 Z M-37.9921875 30.9453125 C-37.9921875 38.5353125 -37.9921875 46.1253125 -37.9921875 53.9453125 C-30.4021875 53.9453125 -22.8121875 53.9453125 -14.9921875 53.9453125 C-14.94714435 45.49534139 -14.94714435 45.49534139 -15.9296875 37.3828125 C-16.10371094 36.37089844 -16.27773437 35.35898437 -16.45703125 34.31640625 C-16.75761524 32.00185859 -16.75761524 32.00185859 -17.9921875 30.9453125 C-19.4809061 30.85861818 -20.9736325 30.83827756 -22.46484375 30.84765625 C-23.27445557 30.85015381 -24.08406738 30.85265137 -24.91821289 30.85522461 C-25.95324951 30.86432861 -26.98828613 30.87343262 -28.0546875 30.8828125 C-31.3340625 30.9034375 -34.6134375 30.9240625 -37.9921875 30.9453125 Z M-6.9921875 30.9453125 C-6.68536885 34.21670492 -6.37075468 37.48730171 -6.0546875 40.7578125 C-5.96767578 41.68658203 -5.88066406 42.61535156 -5.79101562 43.57226562 C-5.70400391 44.46494141 -5.61699219 45.35761719 -5.52734375 46.27734375 C-5.4487915 47.09952393 -5.37023926 47.9217041 -5.28930664 48.76879883 C-5.03667705 51.12018672 -5.03667705 51.12018672 -3.9921875 53.9453125 C3.5978125 53.9453125 11.1878125 53.9453125 19.0078125 53.9453125 C17.70209021 41.62415259 17.70209021 41.62415259 12.0078125 30.9453125 C10.59211127 30.85879639 9.1722175 30.83826346 7.75390625 30.84765625 C6.47290039 30.85249023 6.47290039 30.85249023 5.16601562 30.85742188 C4.26818359 30.86580078 3.37035156 30.87417969 2.4453125 30.8828125 C1.54361328 30.88732422 0.64191406 30.89183594 -0.28710938 30.89648438 C-2.52220064 30.90831025 -4.75716187 30.9247903 -6.9921875 30.9453125 Z M-104.9921875 63.9453125 C-103.922812 72.32208724 -102.44072635 79.24357574 -98.9921875 86.9453125 C-92.3921875 86.9453125 -85.7921875 86.9453125 -78.9921875 86.9453125 C-80.4771875 75.5603125 -80.4771875 75.5603125 -81.9921875 63.9453125 C-89.5821875 63.9453125 -97.1721875 63.9453125 -104.9921875 63.9453125 Z M-70.9921875 63.9453125 C-71.11635112 72.73282486 -71.11635112 72.73282486 -70.0546875 81.0703125 C-69.88066406 81.98039062 -69.70664063 82.89046875 -69.52734375 83.828125 C-69.19178668 85.9164673 -69.19178668 85.9164673 -67.9921875 86.9453125 C-66.5034689 87.03200682 -65.0107425 87.05234744 -63.51953125 87.04296875 C-62.30511353 87.03922241 -62.30511353 87.03922241 -61.06616211 87.03540039 C-60.03112549 87.02629639 -58.99608887 87.01719238 -57.9296875 87.0078125 C-53.010625 86.976875 -53.010625 86.976875 -47.9921875 86.9453125 C-47.9921875 79.3553125 -47.9921875 71.7653125 -47.9921875 63.9453125 C-55.5821875 63.9453125 -63.1721875 63.9453125 -70.9921875 63.9453125 Z M-37.9921875 63.9453125 C-37.9921875 71.5353125 -37.9921875 79.1253125 -37.9921875 86.9453125 C-31.3921875 86.9453125 -24.7921875 86.9453125 -17.9921875 86.9453125 C-15.58889133 78.53377589 -14.9921875 72.79457466 -14.9921875 63.9453125 C-22.5821875 63.9453125 -30.1721875 63.9453125 -37.9921875 63.9453125 Z M-3.9921875 63.9453125 C-5.17228546 66.30550843 -5.28986435 68.10626967 -5.52734375 70.734375 C-5.61435547 71.67539063 -5.70136719 72.61640625 -5.79101562 73.5859375 C-5.87802734 74.57078125 -5.96503906 75.555625 -6.0546875 76.5703125 C-6.14556641 77.56289062 -6.23644531 78.55546875 -6.33007812 79.578125 C-6.55436984 82.03352901 -6.77374114 84.48938156 -6.9921875 86.9453125 C-0.7221875 86.9453125 5.5478125 86.9453125 12.0078125 86.9453125 C14.81949783 81.32194184 16.52874497 77.87424248 17.7578125 72.0703125 C18.00015625 70.95914063 18.2425 69.84796875 18.4921875 68.703125 C19.06907388 66.08525718 19.06907388 66.08525718 19.0078125 63.9453125 C11.4178125 63.9453125 3.8278125 63.9453125 -3.9921875 63.9453125 Z M-90.9921875 97.9453125 C-85.46487754 104.88988142 -78.94702967 110.84736351 -70.9921875 114.9453125 C-70.3321875 114.9453125 -69.6721875 114.9453125 -68.9921875 114.9453125 C-70.75539873 109.01451109 -73.39586555 103.54790197 -75.9921875 97.9453125 C-80.9421875 97.9453125 -85.8921875 97.9453125 -90.9921875 97.9453125 Z M-64.9921875 97.9453125 C-62.13064174 107.20325468 -56.77764643 114.19890234 -48.9921875 119.9453125 C-48.6621875 119.9453125 -48.3321875 119.9453125 -47.9921875 119.9453125 C-47.9921875 112.6853125 -47.9921875 105.4253125 -47.9921875 97.9453125 C-53.6021875 97.9453125 -59.2121875 97.9453125 -64.9921875 97.9453125 Z M-37.9921875 97.9453125 C-37.9921875 105.2053125 -37.9921875 112.4653125 -37.9921875 119.9453125 C-28.71324661 113.75935191 -25.28898819 108.18180826 -20.9921875 97.9453125 C-26.6021875 97.9453125 -32.2121875 97.9453125 -37.9921875 97.9453125 Z M-9.9921875 97.9453125 C-12.6321875 103.2253125 -15.2721875 108.5053125 -17.9921875 113.9453125 C-17.0021875 114.2753125 -16.0121875 114.6053125 -14.9921875 114.9453125 C-12.76783714 113.69486689 -10.79857159 112.43257366 -8.7421875 110.9453125 C-8.16315674 110.53539063 -7.58412598 110.12546875 -6.98754883 109.703125 C-2.59849125 106.53301079 1.5623993 103.15498099 5.0078125 98.9453125 C5.0078125 98.6153125 5.0078125 98.2853125 5.0078125 97.9453125 C0.0578125 97.9453125 -4.8921875 97.9453125 -9.9921875 97.9453125 Z " fill="#008080" transform="translate(114.9921875,13.0546875)"/>
</svg>
